HIERARCHY
ROOT root     
{
	OFFSET 0.0000 0.0000 0.0000
	CHANNELS 6 Xposition Yposition Zposition Zrotation Yrotation Xrotation
	JOINT pelvis   
	{
		OFFSET 0.0000 0.0000 0.0000
		CHANNELS 3 Zrotation Yrotation Xrotation
		JOINT thorax   
		{
			OFFSET 0.0000 23.0750 -5.0000
			CHANNELS 3 Zrotation Yrotation Xrotation
			JOINT rclavicle
			{
				OFFSET 0.0000 28.0009 0.0000
				CHANNELS 3 Zrotation Yrotation Xrotation
				JOINT rhumerus 
				{
					OFFSET -18.5725 5.5939 0.0000
					CHANNELS 3 Zrotation Yrotation Xrotation
					JOINT rradius  
					{
						OFFSET -24.8459 0.0000 0.0000
						CHANNELS 3 Zrotation Yrotation Xrotation
						JOINT rhand    
						{
							OFFSET -24.5477 0.0000 0.0000
							CHANNELS 3 Zrotation Yrotation Xrotation
							End Site
							{
								OFFSET -8.1826 0.0000 0.0000
							}
						}
					}
				}
			}
			JOINT lclavicle
			{
				OFFSET 0.0000 28.0009 0.0000
				CHANNELS 3 Zrotation Yrotation Xrotation
				JOINT lhumerus 
				{
					OFFSET 18.5725 5.5939 0.0000
					CHANNELS 3 Zrotation Yrotation Xrotation
					JOINT lradius  
					{
						OFFSET 24.8459 0.0000 0.0000
						CHANNELS 3 Zrotation Yrotation Xrotation
						JOINT lhand    
						{
							OFFSET 24.5477 0.0000 0.0000
							CHANNELS 3 Zrotation Yrotation Xrotation
							End Site
							{
								OFFSET 8.1826 0.0000 0.0000
							}
						}
					}
				}
			}
			JOINT head     
			{
				OFFSET 0.0000 35.2030 0.0000
				CHANNELS 3 Zrotation Yrotation Xrotation
				End Site
				{
					OFFSET 0.0000 11.7343 0.0000
				}
			}
		}
		JOINT rfemur   
		{
			OFFSET -8.2817 0.0000 0.0000
			CHANNELS 3 Zrotation Yrotation Xrotation
			JOINT rtibia   
			{
				OFFSET 0.0000 -43.3627 0.0000
				CHANNELS 3 Zrotation Yrotation Xrotation
				JOINT rfoot    
				{
					OFFSET 0.0000 -38.2947 0.0000
					CHANNELS 3 Zrotation Yrotation Xrotation
					JOINT rtoes    
					{
						OFFSET 0.0000 0.0000 16.6054
						CHANNELS 3 Zrotation Yrotation Xrotation
						End Site
						{
							OFFSET 0.0000 0.0000 5.5351
						}
					}
				}
			}
		}
		JOINT lfemur   
		{
			OFFSET 8.2817 0.0000 0.0000
			CHANNELS 3 Zrotation Yrotation Xrotation
			JOINT ltibia   
			{
				OFFSET 0.0000 -43.3627 0.0000
				CHANNELS 3 Zrotation Yrotation Xrotation
				JOINT lfoot    
				{
					OFFSET 0.0000 -38.2947 0.0000
					CHANNELS 3 Zrotation Yrotation Xrotation
					JOINT ltoes    
					{
						OFFSET 0.0000 0.0000 16.6054
						CHANNELS 3 Zrotation Yrotation Xrotation
						End Site
						{
							OFFSET 0.0000 0.0000 5.5351
						}
					}
				}
			}
		}
	}
}
MOTION
Frames: 15
Frame Time: .0333333
38.848 72.188 7.4264 61.6636 -85.9493 -34.5255 0 -0 0 15.2963 -9.9667 13.9996 19.3113 -10.8257 4.501e-06 55.3861 -7.56591 -2.38715 -0 74.8401 -0 -9.68815 1.1285 -0.0955992 -7.83013 14.166 -3.66592e-05 -49.7152 10.7202 16.0138 -180 -88.2514 180 -8.79826 3.62053 -0.2786 7.60651 -8.50057 -18.257 8.8911 -17.0516 -61.6313 -0 -0 74.4438 -5.17892e-05 -10.5721 -24.9291 4.49825 -4.43263e-06 -16.4408 -1.32981 6.42583 -31.6549 -0 -0 84.6971 -8.70282e-07 22.8208 -12.5043 -5.2056 1.3908e-05 -13.146 
37.871 72.49 7.3763 63.9973 -85.7346 -36.6988 0 -0 0 14.9243 -9.34456 14.3058 18.9014 -10.3434 6.22031e-06 55.7157 -6.37741 -1.90662 -0 75.3932 -0 -10.1005 0.977493 -0.0864003 -7.88984 13.8865 1.13295e-05 -50.5282 10.8071 17.0677 0 -89.3326 0 -8.60388 3.91949 -0.295004 7.53781 -8.73296 -17.8449 8.46925 -17.0733 -60.6585 -0 -0 73.8065 9.77643e-05 -10.8464 -25.0757 4.64229 -2.11616e-05 -17.3089 -2.43456 6.88985 -34.7035 -0 -0 86.3948 -2.79676e-05 23.4625 -13.8936 -5.94981 -1.04748e-06 -9.96908 
36.901 72.785 7.3305 66.2312 -85.5058 -38.766 0 -0 0 14.4946 -8.7377 14.624 18.3993 -9.89576 -1.96886e-05 55.9604 -5.21949 -1.20899 -0 76.0442 -0 -10.4596 0.824098 -0.0754008 -7.92228 13.6126 2.67792e-05 -51.2733 10.9749 18.0788 0 -86.9543 0 -8.41288 4.23436 -0.311596 7.47038 -8.94124 -17.4081 8.04693 -17.1087 -59.7031 -0 -0 73.1589 -2.61486e-05 -11.0718 -25.196 4.76207 -3.86414e-06 -18.0897 -3.60664 7.1975 -37.8328 -0 -0 87.9076 -6.42901e-05 23.8793 -15.0543 -6.55933 5.07778e-06 -7.16931 
35.935 73.072 7.2874 68.4078 -85.2786 -40.7782 0 -0 0 14.017 -8.14621 14.9595 17.8196 -9.4912 6.21739e-05 56.1027 -4.08516 -0.314314 -2.45789e-06 76.799 -2.61518e-06 -10.7351 0.681601 -0.0639991 -7.92947 13.3512 -3.88047e-05 -51.9468 11.2392 19.0481 3.11892e-06 -84.7124 -3.42108e-06 -8.2329 4.56356 -0.328604 7.40436 -9.12816 -16.9614 7.63209 -17.1546 -58.7544 -0 -0 72.5065 -7.79767e-05 -11.2521 -25.311 4.86188 1.95919e-05 -18.7375 -4.81822 7.36887 -41.0074 -0 -0 89.1994 -0.000101092 24.1101 -15.9935 -7.02937 -4.98702e-07 -4.80109 
34.965 73.348 7.2451 70.5195 -85.075 -42.7351 0 -0 0 13.5014 -7.56652 15.3178 17.1754 -9.13787 1.58426e-05 56.1274 -2.96566 0.744511 -8.86058e-07 77.666 -1.10074e-06 -10.8972 0.567905 -0.0542002 -7.91657 13.1082 -2.10316e-05 -52.5495 11.6094 19.975 2.48479e-06 -82.5817 -2.1823e-06 -8.07049 4.9045 -0.346201 7.33686 -9.29538 -16.5166 7.23383 -17.2057 -57.8026 -0 -0 71.8529 -7.10624e-05 -11.3965 -25.4389 4.94871 4.71911e-06 -19.2022 -6.04154 7.4296 -44.1906 -0 -0 90.2407 -1.51503e-05 24.193 -16.7265 -7.36782 2.66311e-06 -2.94503 
33.987 73.611 7.2036 72.6799 -84.8986 -44.7585 0 -0 0 12.9526 -6.99546 15.7054 16.4831 -8.8359 -2.04638e-05 56.0171 -1.85939 1.92756 -9.71897e-07 78.6485 -1.1864e-06 -10.9267 0.500901 -0.0478994 -7.89042 12.893 3.03839e-05 -53.0739 12.0873 20.8637 3.48458e-06 -80.6119 -3.64135e-06 -7.92556 5.24905 -0.3639 7.26621 -9.44434 -16.0783 6.85285 -17.2617 -56.8344 -0 -0 71.1963 -2.50491e-05 -11.5113 -25.5771 5.0248 5.01384e-06 -19.5914 -7.25964 7.40318 -47.3431 -0 -0 90.9999 -1.00486e-06 24.1775 -17.3125 -7.60944 1.59984e-06 -1.33808 
32.996 73.859 7.1622 74.9594 -84.7477 -46.9178 0 -0 0 12.378 -6.427 16.1228 15.7573 -8.587 -2.26393e-05 55.7649 -0.762137 3.18785 -0 79.7439 -0 -10.813 0.497602 -0.0471008 -7.85809 12.7171 -1.00704e-05 -53.515 12.6699 21.7231 1.70014e-06 -78.8132 -1.39684e-06 -7.79915 5.58844 -0.381201 7.18854 -9.57562 -15.6472 6.49135 -17.3163 -55.8461 -0 -0 70.5397 2.22677e-05 -11.6052 -25.726 5.094 2.12522e-05 -19.9246 -8.45569 7.31285 -50.4301 -0 -0 91.4473 -7.02906e-05 24.0966 -17.771 -7.77321 1.87816e-08 -0.0735995 
31.99 74.094 7.1193 77.3731 -84.6394 -49.2281 0 -0 0 11.7927 -5.85416 16.5597 15.0133 -8.39204 2.94363e-05 55.3671 0.327804 4.46877 -1.76234e-06 80.9485 -2.06516e-06 -10.5505 0.572503 -0.0529008 -7.83389 12.584 2.56826e-05 -53.8657 13.3545 22.5567 2.53823e-06 -77.2065 -2.69545e-06 -7.69798 5.91803 -0.398501 7.09525 -9.68989 -15.2241 6.15748 -17.3628 -54.835 -0 -0 69.8764 5.18179e-05 -11.6851 -25.8852 5.15924 -2.60476e-05 -20.1945 -9.61003 7.1769 -53.4314 -0 -0 91.5609 4.38581e-05 23.9711 -18.1004 172.135 7.08096e-07 -0.629896 
30.967 74.312 7.0766 80.0355 -84.5432 -51.7984 0 -0 0 11.1921 -5.27252 17.0123 14.2645 -8.24226 -1.27793e-05 54.8206 1.39981 5.72653 -1.4746e-06 82.2615 -1.68853e-06 -10.1645 0.726503 -0.0645997 -7.81763 12.5089 2.17699e-05 -54.1223 14.1232 23.382 1.06794e-06 -75.7875 -1.37213e-06 -7.61402 6.22325 -0.414498 6.98638 -9.78511 -14.8029 5.84119 -17.4005 -53.7994 -0 -0 69.2075 4.12155e-05 -11.75 -26.033 5.21595 1.6192e-05 -20.5515 -10.7189 7.00639 -56.3162 -0 -0 91.3224 7.96525e-05 23.8106 -18.3346 172.097 -4.27667e-07 -0.907008 
29.924 74.516 7.0333 82.9412 -84.4822 -54.6195 0 -0 0 10.5894 -4.67562 17.4641 13.5205 -8.13358 -2.43623e-05 54.1341 2.44523 6.90952 -5.381e-06 83.6702 -5.45718e-06 -9.67564 0.954695 -0.0808004 -7.82565 12.4904 -7.67825e-06 -54.2762 14.9758 24.1996 1.27687e-06 -74.5745 -9.72264e-07 -7.55698 6.50014 -0.4297 6.85326 -9.86061 -14.3803 5.54901 -17.4256 -52.7486 -0 -0 68.5307 1.1764e-05 -11.797 -26.1623 5.26123 -3.69159e-05 -20.9947 -11.7689 6.8118 -59.0759 -0 -0 90.72 3.83125e-05 23.6064 -18.5044 172.103 -3.29726e-07 -0.958305 
28.863 74.703 6.9905 86.1273 -84.4583 -57.724 0 -0 0 9.98388 -4.06144 17.9047 12.7856 -8.05601 3.74091e-05 53.3175 3.44671 7.98639 -6.82053e-06 85.1456 -6.97694e-06 -9.12807 1.23734 -0.0988043 -7.85264 12.5403 -2.43082e-05 -54.3318 15.8896 25.0289 1.20764e-06 -73.5521 -9.02647e-07 -7.51983 6.73781 -0.443303 6.69766 -9.91287 -13.9539 5.27096 -17.4346 -51.6841 -0 -0 67.8514 0.000133614 -11.8169 -26.2523 5.28719 3.17767e-05 -21.6479 -12.7531 6.59478 -61.6963 -0 -0 89.748 6.15026e-05 23.3376 -18.5853 172.17 7.8564e-08 -0.637798 
27.784 74.873 6.9482 89.6216 -84.448 -61.1309 0 -0 0 9.38145 -3.42777 18.3198 12.0665 -8.00174 -4.48901e-05 52.3807 4.38775 8.9282 -3.62491e-06 86.7149 -3.83847e-06 -8.56034 1.54912 -0.115902 -7.90191 12.6585 3.35651e-05 -54.2876 16.8533 25.8724 1.1572e-06 -72.7175 -8.51877e-07 -7.50648 6.93205 -0.4553 6.51829 -9.93898 -13.5226 5.00651 -17.4272 -50.6149 -0 -0 67.167 -0.000135155 -11.7967 -26.2929 5.28574 5.55265e-06 -22.5391 -13.6626 6.3615 -64.1669 -0 -0 88.41 -0.000110404 22.9772 -18.5776 172.307 -7.4622e-09 -0.0597997 
26.685 75.027 6.9065 93.4289 -84.4388 -64.8384 0 -0 0 8.78635 -2.77514 18.6997 11.3616 -7.96321 7.30301e-06 51.341 5.25103 9.7182 -0 88.3623 -0 -8.01131 1.8604 -0.130297 -7.97044 12.8475 -2.49056e-05 -54.1528 17.8563 26.7348 1.12079e-06 -72.0606 -8.15196e-07 -7.519 7.07975 -0.465805 6.31735 -9.93574 -13.0898 4.75129 -17.401 -49.5468 -0 -0 66.4827 -1.78952e-05 -11.7247 -26.2794 5.25003 2.04443e-05 -23.6794 -14.4899 6.11514 -66.4866 -0 -0 86.7157 2.38335e-05 22.495 -18.4699 -7.47408 6.62179e-07 -0.669995 
25.568 75.162 6.8651 97.496 -84.4436 -68.7962 0 -0 0 8.20255 -2.10681 19.0402 10.6713 -7.93374 -2.3973e-06 50.2137 6.02119 10.3508 -180 90 -180 -7.51058 2.14296 -0.140697 -8.04965 13.1071 -2.46531e-05 -53.9408 18.8802 27.6204 1.11603e-06 -71.5629 -1.5485e-06 -7.55263 7.17805 -0.474398 6.10004 -9.90001 -12.6617 4.50192 -17.3581 -48.4773 -0 -0 65.7998 -6.72494e-05 -11.5875 -26.1969 5.17237 -3.479e-06 -25.2001 -15.2285 5.86164 -68.6459 -0 -0 84.6768 1.41831e-05 21.8735 -18.2289 -7.15802 -1.56502e-06 -1.75102 
24.43 75.28 6.8238 101.779 -84.4501 -72.9599 0 -0 0 7.63345 -1.42621 19.3357 10.0012 -7.91005 -2.9983e-06 49.0122 6.68827 10.8217 -180 88.2343 -180 -7.07695 2.37261 -0.1467 -8.13894 13.4235 -3.20197e-05 -53.664 19.9285 28.5141 0 -71.2126 -0 -7.61785 7.22964 -0.48201 5.87243 -9.83108 -12.2476 4.25714 -17.3042 -47.4063 -0 -0 65.1173 -3.66343e-05 -11.3739 -26.0767 5.05335 4.7968e-05 -26.8588 -15.8765 5.6088 -70.6414 -0 -0 82.3122 9.71861e-05 21.1057 -17.8718 -6.75545 -7.825e-06 -2.845 
